<?xml version="1.0" encoding="UTF-8" standalone="no"?>
<!-- Created with Inkscape (http://www.inkscape.org/) -->

<svg
   width="210mm"
   height="297mm"
   viewBox="0 0 210 297"
   version="1.1"
   id="svg5"
   inkscape:version="1.2.2 (732a01da63, 2022-12-09)"
   sodipodi:docname="me.svg"
   inkscape:export-filename="me.jpg"
   inkscape:export-xdpi="96"
   inkscape:export-ydpi="96"
   xmlns:inkscape="http://www.inkscape.org/namespaces/inkscape"
   xmlns:sodipodi="http://sodipodi.sourceforge.net/DTD/sodipodi-0.dtd"
   xmlns="http://www.w3.org/2000/svg"
   xmlns:svg="http://www.w3.org/2000/svg">
  <sodipodi:namedview
     id="namedview7"
     pagecolor="#800000"
     bordercolor="#000000"
     borderopacity="0.25"
     inkscape:showpageshadow="2"
     inkscape:pageopacity="0"
     inkscape:pagecheckerboard="0"
     inkscape:deskcolor="#ffffff"
     inkscape:document-units="mm"
     showgrid="false"
     showguides="false"
     inkscape:zoom="0.46769781"
     inkscape:cx="-239.47087"
     inkscape:cy="624.33476"
     inkscape:window-width="1366"
     inkscape:window-height="705"
     inkscape:window-x="-8"
     inkscape:window-y="-8"
     inkscape:window-maximized="1"
     inkscape:current-layer="layer1">
    <inkscape:grid
       type="xygrid"
       id="grid7068" />
  </sodipodi:namedview>
  <defs
     id="defs2">
    <inkscape:path-effect
       effect="bspline"
       id="path-effect31825"
       is_visible="true"
       lpeversion="1"
       weight="33.333333"
       steps="2"
       helper_size="0"
       apply_no_weight="true"
       apply_with_weight="true"
       only_selected="false" />
    <inkscape:path-effect
       effect="bspline"
       id="path-effect31819"
       is_visible="true"
       lpeversion="1"
       weight="33.333333"
       steps="2"
       helper_size="0"
       apply_no_weight="true"
       apply_with_weight="true"
       only_selected="false" />
    <inkscape:path-effect
       effect="bspline"
       id="path-effect31813"
       is_visible="true"
       lpeversion="1"
       weight="33.333333"
       steps="2"
       helper_size="0"
       apply_no_weight="true"
       apply_with_weight="true"
       only_selected="false" />
    <inkscape:path-effect
       effect="bspline"
       id="path-effect31807"
       is_visible="true"
       lpeversion="1"
       weight="33.333333"
       steps="2"
       helper_size="0"
       apply_no_weight="true"
       apply_with_weight="true"
       only_selected="false" />
    <inkscape:path-effect
       effect="bspline"
       id="path-effect31801"
       is_visible="true"
       lpeversion="1"
       weight="33.333333"
       steps="2"
       helper_size="0"
       apply_no_weight="true"
       apply_with_weight="true"
       only_selected="false" />
    <inkscape:path-effect
       effect="bspline"
       id="path-effect31795"
       is_visible="true"
       lpeversion="1"
       weight="33.333333"
       steps="2"
       helper_size="0"
       apply_no_weight="true"
       apply_with_weight="true"
       only_selected="false" />
    <inkscape:path-effect
       effect="bspline"
       id="path-effect31791"
       is_visible="true"
       lpeversion="1"
       weight="33.333333"
       steps="2"
       helper_size="0"
       apply_no_weight="true"
       apply_with_weight="true"
       only_selected="false" />
    <inkscape:path-effect
       effect="bspline"
       id="path-effect31787"
       is_visible="true"
       lpeversion="1"
       weight="33.333333"
       steps="2"
       helper_size="0"
       apply_no_weight="true"
       apply_with_weight="true"
       only_selected="false" />
    <inkscape:path-effect
       effect="bspline"
       id="path-effect31775"
       is_visible="true"
       lpeversion="1"
       weight="33.333333"
       steps="2"
       helper_size="0"
       apply_no_weight="true"
       apply_with_weight="true"
       only_selected="false" />
    <inkscape:path-effect
       effect="bspline"
       id="path-effect31739"
       is_visible="true"
       lpeversion="1"
       weight="33.333333"
       steps="2"
       helper_size="0"
       apply_no_weight="true"
       apply_with_weight="true"
       only_selected="false" />
    <inkscape:path-effect
       effect="bspline"
       id="path-effect31731"
       is_visible="true"
       lpeversion="1"
       weight="33.333333"
       steps="2"
       helper_size="0"
       apply_no_weight="true"
       apply_with_weight="true"
       only_selected="false" />
    <inkscape:path-effect
       effect="bspline"
       id="path-effect31725"
       is_visible="true"
       lpeversion="1"
       weight="33.333333"
       steps="2"
       helper_size="0"
       apply_no_weight="true"
       apply_with_weight="true"
       only_selected="false" />
    <inkscape:path-effect
       effect="bspline"
       id="path-effect31683"
       is_visible="true"
       lpeversion="1"
       weight="33.333333"
       steps="2"
       helper_size="0"
       apply_no_weight="true"
       apply_with_weight="true"
       only_selected="false" />
    <inkscape:path-effect
       effect="bspline"
       id="path-effect31657"
       is_visible="true"
       lpeversion="1"
       weight="33.333333"
       steps="2"
       helper_size="0"
       apply_no_weight="true"
       apply_with_weight="true"
       only_selected="false" />
    <inkscape:path-effect
       effect="bspline"
       id="path-effect31653"
       is_visible="true"
       lpeversion="1"
       weight="33.333333"
       steps="2"
       helper_size="0"
       apply_no_weight="true"
       apply_with_weight="true"
       only_selected="false" />
    <inkscape:path-effect
       effect="bspline"
       id="path-effect31586"
       is_visible="true"
       lpeversion="1"
       weight="33.333333"
       steps="2"
       helper_size="0"
       apply_no_weight="true"
       apply_with_weight="true"
       only_selected="false" />
    <inkscape:path-effect
       effect="bspline"
       id="path-effect31580"
       is_visible="true"
       lpeversion="1"
       weight="33.333333"
       steps="2"
       helper_size="0"
       apply_no_weight="true"
       apply_with_weight="true"
       only_selected="false" />
    <inkscape:path-effect
       effect="skeletal"
       id="path-effect31519"
       is_visible="true"
       lpeversion="1"
       pattern="M 0,0 H 1"
       copytype="single_stretched"
       prop_scale="5"
       scale_y_rel="false"
       spacing="0"
       normal_offset="0"
       tang_offset="0"
       prop_units="false"
       vertical_pattern="false"
       hide_knot="false"
       fuse_tolerance="0" />
    <inkscape:path-effect
       effect="bspline"
       id="path-effect31515"
       is_visible="true"
       lpeversion="1"
       weight="40"
       steps="2"
       helper_size="0"
       apply_no_weight="true"
       apply_with_weight="true"
       only_selected="false" />
    <inkscape:path-effect
       effect="skeletal"
       id="path-effect31509"
       is_visible="true"
       lpeversion="1"
       pattern="M 0,0 H 1"
       copytype="single_stretched"
       prop_scale="5"
       scale_y_rel="false"
       spacing="0"
       normal_offset="0"
       tang_offset="0"
       prop_units="false"
       vertical_pattern="false"
       hide_knot="false"
       fuse_tolerance="0" />
    <inkscape:path-effect
       effect="bspline"
       id="path-effect31505"
       is_visible="true"
       lpeversion="1"
       weight="40"
       steps="2"
       helper_size="0"
       apply_no_weight="true"
       apply_with_weight="true"
       only_selected="false" />
    <inkscape:path-effect
       effect="skeletal"
       id="path-effect31499"
       is_visible="true"
       lpeversion="1"
       pattern="M 0,0 H 1"
       copytype="single_stretched"
       prop_scale="5"
       scale_y_rel="false"
       spacing="0"
       normal_offset="0"
       tang_offset="0"
       prop_units="false"
       vertical_pattern="false"
       hide_knot="false"
       fuse_tolerance="0" />
    <inkscape:path-effect
       effect="bspline"
       id="path-effect15244"
       is_visible="true"
       lpeversion="1"
       weight="33.333333"
       steps="2"
       helper_size="0"
       apply_no_weight="true"
       apply_with_weight="true"
       only_selected="false" />
    <inkscape:path-effect
       effect="bspline"
       id="path-effect14514"
       is_visible="true"
       lpeversion="1"
       weight="33.333333"
       steps="2"
       helper_size="0"
       apply_no_weight="true"
       apply_with_weight="true"
       only_selected="false" />
    <inkscape:path-effect
       effect="bspline"
       id="path-effect13046"
       is_visible="true"
       lpeversion="1"
       weight="33.333333"
       steps="2"
       helper_size="0"
       apply_no_weight="true"
       apply_with_weight="true"
       only_selected="false" />
    <inkscape:path-effect
       effect="bspline"
       id="path-effect13042"
       is_visible="true"
       lpeversion="1"
       weight="33.333333"
       steps="2"
       helper_size="0"
       apply_no_weight="true"
       apply_with_weight="true"
       only_selected="false" />
    <inkscape:path-effect
       effect="bspline"
       id="path-effect13036"
       is_visible="true"
       lpeversion="1"
       weight="33.333333"
       steps="2"
       helper_size="0"
       apply_no_weight="true"
       apply_with_weight="true"
       only_selected="false" />
    <inkscape:path-effect
       effect="bspline"
       id="path-effect13032"
       is_visible="true"
       lpeversion="1"
       weight="33.333333"
       steps="2"
       helper_size="0"
       apply_no_weight="true"
       apply_with_weight="true"
       only_selected="false" />
    <inkscape:path-effect
       effect="bspline"
       id="path-effect13028"
       is_visible="true"
       lpeversion="1"
       weight="33.333333"
       steps="2"
       helper_size="0"
       apply_no_weight="true"
       apply_with_weight="true"
       only_selected="false" />
    <inkscape:path-effect
       effect="bspline"
       id="path-effect11412"
       is_visible="true"
       lpeversion="1"
       weight="40"
       steps="2"
       helper_size="0"
       apply_no_weight="true"
       apply_with_weight="true"
       only_selected="false" />
    <inkscape:path-effect
       effect="bspline"
       id="path-effect7872"
       is_visible="true"
       lpeversion="1"
       weight="33.333333"
       steps="2"
       helper_size="0"
       apply_no_weight="true"
       apply_with_weight="true"
       only_selected="false" />
    <inkscape:path-effect
       effect="bspline"
       id="path-effect7866"
       is_visible="true"
       lpeversion="1"
       weight="40"
       steps="2"
       helper_size="0"
       apply_no_weight="true"
       apply_with_weight="true"
       only_selected="false" />
    <inkscape:path-effect
       effect="bspline"
       id="path-effect7860"
       is_visible="true"
       lpeversion="1"
       weight="33.333333"
       steps="2"
       helper_size="0"
       apply_no_weight="true"
       apply_with_weight="true"
       only_selected="false" />
    <inkscape:path-effect
       effect="bspline"
       id="path-effect7854"
       is_visible="true"
       lpeversion="1"
       weight="33.333333"
       steps="2"
       helper_size="0"
       apply_no_weight="true"
       apply_with_weight="true"
       only_selected="false" />
    <inkscape:path-effect
       effect="bspline"
       id="path-effect7848"
       is_visible="true"
       lpeversion="1"
       weight="33.333333"
       steps="2"
       helper_size="0"
       apply_no_weight="true"
       apply_with_weight="true"
       only_selected="false" />
    <inkscape:path-effect
       effect="bspline"
       id="path-effect7842"
       is_visible="true"
       lpeversion="1"
       weight="33.333333"
       steps="2"
       helper_size="0"
       apply_no_weight="true"
       apply_with_weight="true"
       only_selected="false" />
    <inkscape:path-effect
       effect="bspline"
       id="path-effect7836"
       is_visible="true"
       lpeversion="1"
       weight="33.333333"
       steps="2"
       helper_size="0"
       apply_no_weight="true"
       apply_with_weight="true"
       only_selected="false" />
    <inkscape:path-effect
       effect="bspline"
       id="path-effect7830"
       is_visible="true"
       lpeversion="1"
       weight="33.333333"
       steps="2"
       helper_size="0"
       apply_no_weight="true"
       apply_with_weight="true"
       only_selected="false" />
    <inkscape:path-effect
       effect="bspline"
       id="path-effect7824"
       is_visible="true"
       lpeversion="1"
       weight="33.333333"
       steps="2"
       helper_size="0"
       apply_no_weight="true"
       apply_with_weight="true"
       only_selected="false" />
    <inkscape:path-effect
       effect="bspline"
       id="path-effect7818"
       is_visible="true"
       lpeversion="1"
       weight="33.333333"
       steps="2"
       helper_size="0"
       apply_no_weight="true"
       apply_with_weight="true"
       only_selected="false" />
    <inkscape:path-effect
       effect="bspline"
       id="path-effect7812"
       is_visible="true"
       lpeversion="1"
       weight="33.333333"
       steps="2"
       helper_size="0"
       apply_no_weight="true"
       apply_with_weight="true"
       only_selected="false" />
    <inkscape:path-effect
       effect="bspline"
       id="path-effect7806"
       is_visible="true"
       lpeversion="1"
       weight="33.333333"
       steps="2"
       helper_size="0"
       apply_no_weight="true"
       apply_with_weight="true"
       only_selected="false" />
    <inkscape:path-effect
       effect="bspline"
       id="path-effect7074"
       is_visible="true"
       lpeversion="1"
       weight="33.333333"
       steps="2"
       helper_size="0"
       apply_no_weight="true"
       apply_with_weight="true"
       only_selected="false" />
    <inkscape:path-effect
       effect="bspline"
       id="path-effect528"
       is_visible="true"
       lpeversion="1"
       weight="33.333333"
       steps="2"
       helper_size="0"
       apply_no_weight="true"
       apply_with_weight="true"
       only_selected="false" />
    <inkscape:path-effect
       effect="spiro"
       id="path-effect512"
       is_visible="true"
       lpeversion="1" />
    <inkscape:path-effect
       effect="bspline"
       id="path-effect508"
       is_visible="true"
       lpeversion="1"
       weight="33.333333"
       steps="2"
       helper_size="0"
       apply_no_weight="true"
       apply_with_weight="true"
       only_selected="false" />
    <inkscape:path-effect
       effect="bspline"
       id="path-effect498"
       is_visible="true"
       lpeversion="1"
       weight="33.333333"
       steps="2"
       helper_size="0"
       apply_no_weight="true"
       apply_with_weight="true"
       only_selected="false" />
    <inkscape:path-effect
       effect="bspline"
       id="path-effect494"
       is_visible="true"
       lpeversion="1"
       weight="33.333333"
       steps="2"
       helper_size="0"
       apply_no_weight="true"
       apply_with_weight="true"
       only_selected="false" />
    <inkscape:path-effect
       effect="bspline"
       id="path-effect423"
       is_visible="true"
       lpeversion="1"
       weight="33.333333"
       steps="2"
       helper_size="0"
       apply_no_weight="true"
       apply_with_weight="true"
       only_selected="false" />
    <inkscape:path-effect
       effect="bspline"
       id="path-effect255"
       is_visible="true"
       lpeversion="1"
       weight="33.333333"
       steps="2"
       helper_size="0"
       apply_no_weight="true"
       apply_with_weight="true"
       only_selected="false" />
    <inkscape:path-effect
       effect="bspline"
       id="path-effect197"
       is_visible="true"
       lpeversion="1"
       weight="33.333333"
       steps="2"
       helper_size="0"
       apply_no_weight="true"
       apply_with_weight="true"
       only_selected="false" />
    <inkscape:path-effect
       effect="skeletal"
       id="path-effect193"
       is_visible="true"
       lpeversion="1"
       pattern="M 0,4.9921382 C 0,2.2364779 2.2364779,0 4.9921382,0 c 2.7556604,0 4.9921383,2.2364779 4.9921383,4.9921382 0,2.7556604 -2.2364779,4.9921383 -4.9921383,4.9921383 C 2.2364779,9.9842765 0,7.7477986 0,4.9921382 Z"
       copytype="single_stretched"
       prop_scale="1"
       scale_y_rel="false"
       spacing="0"
       normal_offset="0"
       tang_offset="0"
       prop_units="false"
       vertical_pattern="false"
       hide_knot="false"
       fuse_tolerance="0" />
    <inkscape:path-effect
       effect="bspline"
       id="path-effect191"
       is_visible="true"
       lpeversion="1"
       weight="33.333333"
       steps="2"
       helper_size="0"
       apply_no_weight="true"
       apply_with_weight="true"
       only_selected="false" />
    <inkscape:path-effect
       effect="bspline"
       id="path-effect183"
       is_visible="true"
       lpeversion="1"
       weight="33.333333"
       steps="2"
       helper_size="0"
       apply_no_weight="true"
       apply_with_weight="true"
       only_selected="false" />
    <inkscape:path-effect
       effect="powerstroke"
       id="path-effect121"
       is_visible="true"
       lpeversion="1"
       offset_points="1,15.787727"
       not_jump="false"
       sort_points="true"
       interpolator_type="CubicBezierJohan"
       interpolator_beta="0.2"
       start_linecap_type="zerowidth"
       linejoin_type="extrp_arc"
       miter_limit="4"
       scale_width="1"
       end_linecap_type="zerowidth" />
    <inkscape:path-effect
       effect="bspline"
       id="path-effect119"
       is_visible="true"
       lpeversion="1"
       weight="33.333333"
       steps="2"
       helper_size="0"
       apply_no_weight="true"
       apply_with_weight="true"
       only_selected="false" />
    <inkscape:path-effect
       effect="fill_between_many"
       method="bsplinespiro"
       linkedpaths="#path117,0,1"
       id="path-effect123" />
  </defs>
  <g
     inkscape:label="Layer 1"
     inkscape:groupmode="layer"
     id="layer1">
    <rect
       style="fill:#000000;fill-opacity:1;stroke:none;stroke-width:2.18626;stroke-linejoin:round;stroke-dasharray:none;stroke-opacity:1;paint-order:stroke markers fill"
       id="rect29319"
       width="102.38641"
       height="96.264435"
       x="58.3461"
       y="88.540314"
       ry="44.114685"
       rx="0" />
    <path
       id="rect29152"
       style="fill:#ffffff;fill-opacity:1;stroke:none;stroke-width:2.30288;stroke-linejoin:round;stroke-dasharray:none;stroke-opacity:1;paint-order:stroke markers fill"
       d="m 78.719932,225.08804 c -17.91875,0 -32.343975,14.98763 -32.343975,33.60499 v 5.39144 H 172.70264 v -5.39144 c 0,-18.61736 -14.42524,-33.60499 -32.34396,-33.60499 z" />
    <rect
       style="fill:#ff781f;fill-opacity:1;stroke:none;stroke-width:0.820186;stroke-linejoin:round;stroke-dasharray:none;stroke-opacity:1;paint-order:stroke markers fill"
       id="rect16039"
       width="31.893543"
       height="47.462807"
       x="93.592506"
       y="189.96021"
       ry="16.884304" />
    <rect
       style="fill:#ff8533;fill-opacity:1;stroke:none;stroke-width:2.11188;stroke-linejoin:round;stroke-dasharray:none;stroke-opacity:1;paint-order:stroke markers fill"
       id="rect16037"
       width="92.306236"
       height="108.72859"
       x="63.386208"
       y="104.96304"
       ry="45.501942" />
    <path
       style="fill:#800000;stroke-width:0.191916"
       d="m 70.259657,68.724479 c 0,0 18.998244,0.275737 18.998054,0.275734 -1.9e-4,-3e-6 -18.998054,-0.275734 -18.998054,-0.275734 z"
       id="path496"
       inkscape:original-d="m 51.26122,68.448739 c 18.998434,0.27593 37.996678,0.551667 56.99474,0.827211 C 89.257518,69.000401 70.259654,68.724669 51.26122,68.448739 Z"
       inkscape:path-effect="#path-effect498" />
    <path
       style="fill:none;fill-rule:evenodd;stroke:#363636;stroke-width:2.82883;stroke-linejoin:round;stroke-dasharray:none;stroke-opacity:1;paint-order:stroke markers fill"
       d="m 77.592575,153.58091 c 3.973972,-2.51528 5.960815,-3.77283 9.957712,-3.73887 3.996896,0.034 6.006579,1.32505 10.024897,3.90655"
       id="path7862"
       inkscape:path-effect="#path-effect7866"
       inkscape:original-d="m 77.592575,153.58091 c 3.974616,-2.51426 5.961459,-3.77181 9.934211,-6.28774 4.020291,2.583 6.029971,3.87409 10.048398,6.45542" />
    <path
       style="fill:none;stroke:#363636;stroke-width:3.19974;stroke-linejoin:round;stroke-dasharray:none;stroke-opacity:1;paint-order:stroke markers fill"
       d="m 120.6008,133.45919 c 1.7221,-1.21142 3.42381,-2.48178 5.33308,-3.3694 1.66573,-0.7744 3.51479,-1.10672 5.35165,-1.08939 l 1e-5,0 c 1.84941,0.0174 3.7025,0.38974 5.36987,1.19008 l 0,0 c 1.92776,0.92534 3.64678,2.22611 5.38705,3.46867"
       id="path11408"
       inkscape:path-effect="#path-effect11412;#path-effect31499"
       inkscape:original-d="m 120.6008,133.45919 c 4.26482,-2.99841 6.39674,-4.49811 10.65956,-7.49852 4.31384,3.08039 6.47026,4.62009 10.7821,7.69848"
       class="UnoptimicedTransforms"
       transform="matrix(0.9319527,0,0,0.83853261,9.104099,41.67104)" />
    <path
       id="path15980"
       style="fill:#c83737;stroke-width:1.82409;stroke-linejoin:round;paint-order:stroke markers fill"
       d="m 124.31331,194.16094 a 15.946775,6.7354702 0 0 0 -0.11045,-0.11258 15.946775,6.7354702 0 0 0 -0.14429,-0.13829 15.946775,6.7354702 0 0 0 -0.15173,-0.13677 15.946775,6.7354702 0 0 0 -0.15879,-0.13564 15.946775,6.7354702 0 0 0 -0.16623,-0.13374 15.946775,6.7354702 0 0 0 -0.17291,-0.13224 15.946775,6.7354702 0 0 0 -0.18,-0.13072 15.946775,6.7354702 0 0 0 -0.18705,-0.12884 15.946775,6.7354702 0 0 0 -0.19375,-0.12695 15.946775,6.7354702 0 0 0 -0.20044,-0.12506 15.946775,6.7354702 0 0 0 -0.20715,-0.12354 15.946775,6.7354702 0 0 0 -0.21345,-0.12128 15.946775,6.7354702 0 0 0 -0.22016,-0.11901 15.946775,6.7354702 0 0 0 -0.2261,-0.11712 15.946775,6.7354702 0 0 0 -0.23243,-0.11486 15.946775,6.7354702 0 0 0 -0.23837,-0.11298 15.946775,6.7354702 0 0 0 -0.24432,-0.11032 15.946775,6.7354702 0 0 0 -0.25028,-0.10805 15.946775,6.7354702 0 0 0 -0.25585,-0.10579 15.946775,6.7354702 0 0 0 -0.26143,-0.10314 15.946775,6.7354702 0 0 0 -0.267,-0.1005 15.946775,6.7354702 0 0 0 -0.27185,-0.0982 15.946775,6.7354702 0 0 0 -0.27743,-0.0956 15.946775,6.7354702 0 0 0 -0.28225,-0.093 15.946775,6.7354702 0 0 0 -0.28709,-0.0903 15.946775,6.7354702 0 0 0 -0.29192,-0.0873 15.946775,6.7354702 0 0 0 -0.2964,-0.0847 15.946775,6.7354702 0 0 0 -0.30084,-0.082 15.946775,6.7354702 0 0 0 -0.30495,-0.079 15.946775,6.7354702 0 0 0 -0.3094,-0.076 15.946775,6.7354702 0 0 0 -0.31312,-0.0733 15.946775,6.7354702 0 0 0 -0.31685,-0.0699 15.946775,6.7354702 0 0 0 -0.32055,-0.0673 15.946775,6.7354702 0 0 0 -0.32429,-0.0638 15.946775,6.7354702 0 0 0 -0.32724,-0.0612 15.946775,6.7354702 0 0 0 -0.33061,-0.0578 15.946775,6.7354702 0 0 0 -0.33395,-0.0548 15.946775,6.7354702 0 0 0 -0.33617,-0.0514 15.946775,6.7354702 0 0 0 -0.33916,-0.0483 15.946775,6.7354702 0 0 0 -0.34138,-0.0449 15.946775,6.7354702 0 0 0 -0.34399,-0.042 15.946775,6.7354702 0 0 0 -0.34585,-0.0385 15.946775,6.7354702 0 0 0 -0.34807,-0.0352 15.946775,6.7354702 0 0 0 -0.34957,-0.0321 15.946775,6.7354702 0 0 0 -0.35143,-0.0288 15.946775,6.7354702 0 0 0 -0.35292,-0.0253 15.946775,6.7354702 0 0 0 -0.35403,-0.0219 15.946775,6.7354702 0 0 0 -0.35514,-0.0185 15.946775,6.7354702 0 0 0 -0.35588,-0.0155 15.946775,6.7354702 0 0 0 -0.35664,-0.0117 15.946775,6.7354702 0 0 0 -0.35738,-0.009 15.946775,6.7354702 0 0 0 -0.35775,-0.005 15.946775,6.7354702 0 0 0 -0.35774,-0.002 15.946775,6.7354702 0 0 0 -1.04313,0.0143 15.946775,6.7354702 0 0 0 -1.03828,0.043 15.946775,6.7354702 0 0 0 -1.02973,0.0718 15.946775,6.7354702 0 0 0 -1.01635,0.10012 15.946775,6.7354702 0 0 0 -0.9985,0.12809 15.946775,6.7354702 0 0 0 -0.97655,0.15527 15.946775,6.7354702 0 0 0 -0.95052,0.18174 15.946775,6.7354702 0 0 0 -0.9204,0.2078 15.946775,6.7354702 0 0 0 -0.8862,0.23273 15.946775,6.7354702 0 0 0 -0.848246,0.25692 15.946775,6.7354702 0 0 0 -0.806609,0.27958 15.946775,6.7354702 0 0 0 -0.761608,0.30112 15.946775,6.7354702 0 0 0 -0.713265,0.3219 15.946775,6.7354702 0 0 0 -0.661946,0.34042 15.946775,6.7354702 0 0 0 -0.608022,0.35855 15.946775,6.7354702 0 0 0 -0.551125,0.37404 15.946775,6.7354702 0 0 0 -0.491625,0.38877 15.946775,6.7354702 0 0 0 -0.430637,0.40162 15.946775,6.7354702 0 0 0 -0.03496,0.0393 17.345455,21.953604 89.992049 0 0 14.758773,4.52059 17.345455,21.953604 89.992049 0 0 14.78295,-4.51719 z" />
    <path
       id="path34069"
       style="fill:#241c1c;stroke-width:1.82409;stroke-linejoin:round;paint-order:stroke markers fill"
       d="m 87.589858,181.24183 a 17.345455,21.953604 89.992049 0 0 -0.0033,0.0839 17.345455,21.953604 89.992049 0 0 7.18508,12.83182 15.946775,6.7354702 0 0 1 0.03496,-0.0393 15.946775,6.7354702 0 0 1 0.430636,-0.40163 15.946775,6.7354702 0 0 1 0.491624,-0.38877 15.946775,6.7354702 0 0 1 0.551126,-0.37404 15.946775,6.7354702 0 0 1 0.608022,-0.35855 15.946775,6.7354702 0 0 1 0.661946,-0.34042 15.946775,6.7354702 0 0 1 0.713265,-0.32189 15.946775,6.7354702 0 0 1 0.761608,-0.30113 15.946775,6.7354702 0 0 1 0.806606,-0.27958 15.946775,6.7354702 0 0 1 0.848259,-0.25692 15.946775,6.7354702 0 0 1 0.88619,-0.23273 15.946775,6.7354702 0 0 1 0.92039,-0.2078 15.946775,6.7354702 0 0 1 0.95053,-0.18173 15.946775,6.7354702 0 0 1 0.97656,-0.15528 15.946775,6.7354702 0 0 1 0.99849,-0.12809 15.946775,6.7354702 0 0 1 1.01635,-0.10012 15.946775,6.7354702 0 0 1 1.02973,-0.0718 15.946775,6.7354702 0 0 1 1.03828,-0.043 15.946775,6.7354702 0 0 1 1.04313,-0.0143 15.946775,6.7354702 0 0 1 0.35774,0.002 15.946775,6.7354702 0 0 1 0.35775,0.005 15.946775,6.7354702 0 0 1 0.35738,0.009 15.946775,6.7354702 0 0 1 0.35663,0.0117 15.946775,6.7354702 0 0 1 0.35589,0.0155 15.946775,6.7354702 0 0 1 0.35514,0.0185 15.946775,6.7354702 0 0 1 0.35404,0.0219 15.946775,6.7354702 0 0 1 0.35291,0.0253 15.946775,6.7354702 0 0 1 0.35142,0.0288 15.946775,6.7354702 0 0 1 0.34958,0.0321 15.946775,6.7354702 0 0 1 0.34807,0.0352 15.946775,6.7354702 0 0 1 0.34585,0.0385 15.946775,6.7354702 0 0 1 0.34399,0.042 15.946775,6.7354702 0 0 1 0.34138,0.0449 15.946775,6.7354702 0 0 1 0.33916,0.0483 15.946775,6.7354702 0 0 1 0.33617,0.0514 15.946775,6.7354702 0 0 1 0.33396,0.0548 15.946775,6.7354702 0 0 1 0.3306,0.0578 15.946775,6.7354702 0 0 1 0.32725,0.0612 15.946775,6.7354702 0 0 1 0.32428,0.0638 15.946775,6.7354702 0 0 1 0.32056,0.0673 15.946775,6.7354702 0 0 1 0.31684,0.0699 15.946775,6.7354702 0 0 1 0.31312,0.0733 15.946775,6.7354702 0 0 1 0.30941,0.076 15.946775,6.7354702 0 0 1 0.30494,0.079 15.946775,6.7354702 0 0 1 0.30084,0.082 15.946775,6.7354702 0 0 1 0.2964,0.0847 15.946775,6.7354702 0 0 1 0.29192,0.0873 15.946775,6.7354702 0 0 1 0.28709,0.0903 15.946775,6.7354702 0 0 1 0.28225,0.0929 15.946775,6.7354702 0 0 1 0.27743,0.0956 15.946775,6.7354702 0 0 1 0.27185,0.0982 15.946775,6.7354702 0 0 1 0.267,0.1005 15.946775,6.7354702 0 0 1 0.26143,0.10315 15.946775,6.7354702 0 0 1 0.25585,0.10578 15.946775,6.7354702 0 0 1 0.25028,0.10806 15.946775,6.7354702 0 0 1 0.24432,0.11032 15.946775,6.7354702 0 0 1 0.23838,0.11297 15.946775,6.7354702 0 0 1 0.23242,0.11486 15.946775,6.7354702 0 0 1 0.22611,0.11712 15.946775,6.7354702 0 0 1 0.22015,0.11901 15.946775,6.7354702 0 0 1 0.21345,0.12128 15.946775,6.7354702 0 0 1 0.20715,0.12354 15.946775,6.7354702 0 0 1 0.20044,0.12506 15.946775,6.7354702 0 0 1 0.19375,0.12695 15.946775,6.7354702 0 0 1 0.18705,0.12884 15.946775,6.7354702 0 0 1 0.18,0.13072 15.946775,6.7354702 0 0 1 0.17291,0.13224 15.946775,6.7354702 0 0 1 0.16623,0.13374 15.946775,6.7354702 0 0 1 0.1588,0.13564 15.946775,6.7354702 0 0 1 0.15173,0.13677 15.946775,6.7354702 0 0 1 0.14428,0.13829 15.946775,6.7354702 0 0 1 0.11045,0.11259 17.345455,21.953604 89.992049 0 0 7.17876,-12.79406 l -1.65152,-0.005 c -0.0229,0.0999 -0.0475,0.19916 -0.0755,0.29734 -0.0298,0.10477 -0.0624,0.20867 -0.0978,0.31132 -0.0353,0.10264 -0.0734,0.20413 -0.11416,0.30452 -0.0407,0.1004 -0.0838,0.19972 -0.12979,0.29772 -0.0459,0.098 -0.0948,0.1947 -0.14578,0.29016 -0.051,0.0955 -0.10438,0.18981 -0.16027,0.28261 -0.0559,0.0928 -0.11413,0.18429 -0.17479,0.27429 -0.0606,0.09 -0.12365,0.17855 -0.18892,0.26562 -0.0652,0.0871 -0.13293,0.17254 -0.20266,0.25653 -0.0697,0.084 -0.14166,0.16631 -0.2157,0.24709 -0.074,0.0808 -0.15013,0.15982 -0.22833,0.23727 -0.0782,0.0774 -0.15839,0.1531 -0.24061,0.22707 -0.0822,0.074 -0.16642,0.14651 -0.2525,0.21687 -0.086,0.0703 -0.17425,0.13853 -0.26404,0.20515 -0.0898,0.0666 -0.18108,0.13147 -0.27444,0.1942 -0.0934,0.0627 -0.18811,0.12377 -0.28487,0.18249 -0.0968,0.0588 -0.19525,0.11545 -0.29527,0.17001 -0.10003,0.0546 -0.2018,0.1069 -0.30493,0.15718 -0.10314,0.0503 -0.20779,0.0985 -0.31387,0.14432 -0.1061,0.0459 -0.21387,0.0894 -0.32279,0.13073 -0.10891,0.0413 -0.2194,0.0805 -0.33097,0.11713 -0.11158,0.0366 -0.22434,0.071 -0.33842,0.10277 -0.11407,0.0318 -0.2294,0.0612 -0.34585,0.088 -0.11643,0.0269 -0.23388,0.0508 -0.35253,0.0725 -0.11865,0.0217 -0.23852,0.0409 -0.35924,0.0575 -0.12072,0.0165 -0.24257,0.0304 -0.36519,0.0415 -0.12262,0.0111 -0.246,0.0193 -0.37039,0.0249 -0.12439,0.006 -0.2496,0.009 -0.3756,0.009 H 96.363235 c -0.125998,0 -0.25121,-0.003 -0.375599,-0.009 -0.124386,-0.006 -0.248136,-0.0137 -0.370763,-0.0249 -0.122627,-0.0111 -0.24447,-0.025 -0.365186,-0.0415 -0.120716,-0.0165 -0.240207,-0.0357 -0.358863,-0.0575 -0.118657,-0.0217 -0.23647,-0.0457 -0.352914,-0.0725 -0.116445,-0.0268 -0.231764,-0.0562 -0.345848,-0.088 -0.114083,-0.0318 -0.226836,-0.0661 -0.33841,-0.10277 -0.111575,-0.0366 -0.221688,-0.0758 -0.330601,-0.11713 -0.108912,-0.0413 -0.216319,-0.0848 -0.32242,-0.13073 -0.1061,-0.0458 -0.211098,-0.094 -0.314238,-0.14432 -0.103139,-0.0503 -0.204542,-0.10261 -0.304568,-0.15718 -0.100028,-0.0545 -0.198506,-0.11129 -0.295272,-0.17001 -0.09677,-0.0588 -0.191877,-0.11975 -0.285232,-0.18249 -0.09335,-0.0628 -0.185027,-0.12758 -0.274819,-0.1942 -0.08979,-0.0666 -0.177582,-0.13478 -0.263662,-0.20515 -0.08608,-0.0703 -0.170661,-0.14289 -0.252878,-0.21687 -0.08221,-0.074 -0.16203,-0.14962 -0.240234,-0.22707 -0.0782,-0.0774 -0.154665,-0.15648 -0.228705,-0.23727 -0.07404,-0.0808 -0.145963,-0.16309 -0.215691,-0.24709 -0.06973,-0.084 -0.137037,-0.16947 -0.202303,-0.25653 -0.06526,-0.0871 -0.128261,-0.17561 -0.188914,-0.26562 -0.06065,-0.09 -0.118894,-0.18149 -0.174784,-0.27429 -0.05588,-0.0928 -0.109303,-0.18714 -0.160279,-0.28261 -0.05098,-0.0955 -0.09949,-0.19216 -0.145405,-0.29016 -0.04591,-0.098 -0.08946,-0.19732 -0.130158,-0.29772 -0.0407,-0.10039 -0.07883,-0.20188 -0.114166,-0.30452 -0.03533,-0.10265 -0.06798,-0.20655 -0.09781,-0.31132 -0.02982,-0.10478 -0.05654,-0.21023 -0.0807,-0.31699 -0.0071,-0.0315 -0.01239,-0.0637 -0.01896,-0.0952 z" />
    <path
       id="path32560"
       style="fill:#ffffff;stroke-width:1.82409;stroke-linejoin:round;paint-order:stroke markers fill"
       d="m 89.213908,181.24677 c 0.0066,0.0318 0.01163,0.0641 0.01879,0.0958 0.02415,0.10676 0.05109,0.21242 0.08091,0.31719 0.02982,0.10478 0.06242,0.20848 0.09777,0.31113 0.03533,0.10265 0.07344,0.20424 0.114138,0.30462 0.0407,0.10039 0.08412,0.1997 0.130032,0.2977 0.04591,0.098 0.09447,0.19486 0.145444,0.29032 0.05098,0.0955 0.104483,0.18973 0.160372,0.28253 0.05588,0.0928 0.114167,0.18429 0.174821,0.2743 0.06065,0.09 0.123521,0.17856 0.188788,0.26563 0.06526,0.0871 0.132543,0.17252 0.202272,0.25651 0.06972,0.0841 0.141714,0.16622 0.215756,0.24701 0.07404,0.0807 0.150555,0.16001 0.22876,0.23746 0.0782,0.0774 0.158102,0.15308 0.240317,0.22706 0.08221,0.074 0.166762,0.14629 0.252841,0.21666 0.08608,0.0703 0.173644,0.13877 0.263436,0.2054 0.08979,0.0666 0.181639,0.13139 0.274993,0.19413 0.09335,0.0628 0.188342,0.1237 0.285107,0.18243 0.09677,0.0587 0.195194,0.11529 0.29522,0.16986 0.100028,0.0545 0.201714,0.10701 0.304854,0.1573 0.103139,0.0503 0.207902,0.0984 0.314002,0.1443 0.106101,0.0458 0.213761,0.0895 0.322672,0.13086 0.108913,0.0413 0.218805,0.0804 0.330378,0.11699 0.111573,0.0366 0.224481,0.0709 0.338565,0.1027 0.114084,0.0318 0.229344,0.0611 0.345789,0.088 0.116444,0.0269 0.234356,0.051 0.353012,0.0728 0.118657,0.0217 0.238076,0.0408 0.358793,0.0572 0.120715,0.0165 0.242425,0.0305 0.365052,0.0416 0.122627,0.0111 0.246445,0.0196 0.370831,0.0251 0.124388,0.006 0.249651,0.009 0.375649,0.009 h 26.352188 c 0.12599,0 0.25125,-0.003 0.37564,-0.009 0.12439,-0.006 0.24773,-0.014 0.37036,-0.0251 0.12261,-0.0111 0.24434,-0.0251 0.36504,-0.0416 0.12073,-0.0165 0.24062,-0.0355 0.35928,-0.0572 0.11866,-0.0217 0.23609,-0.046 0.35253,-0.0728 0.11644,-0.0268 0.23171,-0.0561 0.34579,-0.088 0.11408,-0.0318 0.227,-0.0661 0.33857,-0.1027 0.11157,-0.0367 0.22194,-0.0757 0.33085,-0.11699 0.10892,-0.0413 0.21658,-0.085 0.32269,-0.13086 0.10608,-0.0459 0.21085,-0.094 0.31399,-0.1443 0.10315,-0.0503 0.20483,-0.10273 0.30486,-0.1573 0.10002,-0.0546 0.19844,-0.11113 0.29521,-0.16986 0.0968,-0.0588 0.19176,-0.1197 0.28511,-0.18243 0.0934,-0.0627 0.18473,-0.12751 0.27451,-0.19413 0.0898,-0.0666 0.17784,-0.13503 0.26392,-0.2054 0.0861,-0.0703 0.17015,-0.14269 0.25235,-0.21666 0.0823,-0.074 0.1626,-0.14961 0.24081,-0.22706 0.0782,-0.0774 0.15424,-0.15667 0.22828,-0.23746 0.074,-0.0808 0.14602,-0.163 0.21575,-0.24701 0.0697,-0.0839 0.13749,-0.16945 0.20275,-0.25651 0.0652,-0.0871 0.12814,-0.17563 0.18879,-0.26563 0.0606,-0.09 0.11893,-0.1815 0.17482,-0.2743 0.0559,-0.0928 0.10939,-0.18706 0.16038,-0.28253 0.051,-0.0955 0.0995,-0.19232 0.14544,-0.29032 0.0459,-0.098 0.0893,-0.19731 0.13003,-0.2977 0.0407,-0.10038 0.0788,-0.20197 0.11413,-0.30462 0.0353,-0.10265 0.068,-0.20635 0.0978,-0.31113 0.0279,-0.0982 0.0526,-0.19734 0.0756,-0.29726 z" />
    <path
       id="path17524"
       style="fill:#ff6600;stroke-width:0.833337;stroke-linejoin:round;paint-order:stroke markers fill"
       d="m 120.51562,166.24545 -21.950878,-0.0523 a 7.2403171,10.976801 89.995586 0 0 -0.0019,0.035 7.2403171,10.976801 89.995586 0 0 10.971808,7.24315 7.2403171,10.976801 89.995586 0 0 10.98106,-7.22593 z" />
    <rect
       style="fill:#ff8533;fill-opacity:1;stroke:none;stroke-width:0.549036;stroke-linejoin:round;stroke-dasharray:none;stroke-opacity:1;paint-order:stroke markers fill"
       id="rect22608"
       width="21.464369"
       height="31.602774"
       x="54.470356"
       y="146.44141"
       ry="11.242296" />
    <rect
       style="fill:#ff8533;fill-opacity:1;stroke:none;stroke-width:0.561269;stroke-linejoin:round;stroke-dasharray:none;stroke-opacity:1;paint-order:stroke markers fill"
       id="rect22610"
       width="22.431606"
       height="31.602774"
       x="143.14389"
       y="146.44141"
       ry="11.242296" />
    <path
       id="path26968"
       style="fill:#1a1a1a;fill-opacity:1;stroke-width:0.737112;stroke-linejoin:round;stroke-dasharray:none;paint-order:stroke markers fill"
       d="m 75.307972,143.54046 23.444897,-2.91921 a 5.2605198,11.816067 83.387706 0 0 -0.0021,-0.0256 5.2605198,11.816067 83.387706 0 0 -12.587784,-3.71744 5.2605198,11.816067 83.387706 0 0 -10.855015,6.66208 z" />
    <path
       id="path27698"
       style="fill:#1a1a1a;fill-opacity:1;stroke-width:0.734558;stroke-linejoin:round;stroke-dasharray:none;paint-order:stroke markers fill"
       d="m 143.11975,143.24378 -23.28263,-2.9192 a 11.735381,5.2600303 6.68085 0 1 0.003,-0.0256 11.735381,5.2600303 6.68085 0 1 12.50067,-3.71744 11.735381,5.2600303 6.68085 0 1 10.77988,6.6621 z" />
    <path
       style="fill:none;stroke:#363636;stroke-width:3.19974;stroke-linejoin:round;stroke-dasharray:none;stroke-opacity:1;paint-order:stroke markers fill"
       d="m 120.6008,133.45919 c 1.7221,-1.21142 3.42381,-2.48178 5.33308,-3.3694 1.66573,-0.7744 3.51479,-1.10672 5.35165,-1.08939 l 1e-5,0 c 1.84941,0.0174 3.7025,0.38974 5.36987,1.19008 l 0,0 c 1.92776,0.92534 3.64678,2.22611 5.38705,3.46867"
       id="path31501"
       inkscape:path-effect="#path-effect31505;#path-effect31509"
       inkscape:original-d="m 120.6008,133.45919 c 4.26482,-2.99841 6.39674,-4.49811 10.65956,-7.49852 4.31384,3.08039 6.47026,4.62009 10.7821,7.69848"
       class="UnoptimicedTransforms"
       transform="matrix(0.9319527,0,0,0.83853261,9.104099,41.67104)" />
    <path
       id="path31697"
       style="fill:#000000;stroke-width:1.75592;stroke-linejoin:round;paint-order:stroke markers fill"
       d="m 67.73235,125.85376 31.020519,-24.30559 a 17.837074,19.782445 62.471667 0 0 -0.05394,-0.068 17.837074,19.782445 62.471667 0 0 -27.147185,-1.40339 17.837074,19.782445 62.471667 0 0 -3.819577,25.77705 z" />
    <path
       id="path31699"
       style="fill:#000000;stroke-width:1.43101;stroke-linejoin:round;paint-order:stroke markers fill"
       d="m 151.92687,122.0982 -30.02574,-16.67774 a 18.815353,12.455679 5.7785872 0 1 0.0522,-0.0467 18.815353,12.455679 5.7785872 0 1 26.27662,-0.96296 18.815353,12.455679 5.7785872 0 1 3.69708,17.68743 z" />
    <rect
       style="fill:#000000;fill-opacity:1;fill-rule:evenodd;stroke:none;stroke-width:1.70571;stroke-linejoin:round;stroke-dasharray:none;stroke-opacity:1;paint-order:stroke markers fill"
       id="rect31741"
       width="57.499279"
       height="13.115847"
       x="81.29747"
       y="101.20744"
       ry="0" />
    <path
       style="fill:#000000;fill-opacity:1;fill-rule:evenodd;stroke:none;stroke-width:3.48891;stroke-linejoin:round;stroke-dasharray:none;stroke-opacity:1;paint-order:stroke markers fill"
       d="m 89.677485,93.561341 c -2.986409,2.336496 -5.975843,4.675358 -7.95529,5.723205 -1.979447,1.047844 -2.948247,0.801714 -4.885855,0.309439 -1.937608,-0.492272 -4.844012,-1.230675 -7.242902,-2.48999 -2.398891,-1.259315 -4.288393,-3.039412 -6.178402,-4.819987"
       id="path31809"
       inkscape:path-effect="#path-effect31813"
       inkscape:original-d="m 89.677485,93.561341 c -2.986342,2.336582 -5.975776,4.675443 -8.968304,7.016589 -0.965716,-0.24836 -1.934517,-0.49449 -2.906412,-0.738415 -2.903318,-0.74063 -5.809724,-1.479027 -8.719223,-2.215212 -1.886406,-1.782375 -3.775909,-3.562472 -5.66851,-5.340295" />
    <path
       style="fill:#000000;fill-opacity:1;fill-rule:evenodd;stroke:none;stroke-width:4.36142;stroke-linejoin:round;stroke-dasharray:none;stroke-opacity:1;paint-order:stroke markers fill"
       d="m 105.85653,88.764034 c -5.19758,1.86227 -10.400461,3.726439 -13.65379,4.442777 -3.253328,0.716339 -4.556063,0.281536 -7.161539,-0.58807 -2.605475,-0.869605 -6.513686,-2.174012 -9.491327,-3.922656 -2.977641,-1.748643 -5.022047,-3.94181 -7.068046,-6.136686"
       id="path31815"
       inkscape:path-effect="#path-effect31819"
       inkscape:original-d="m 105.85653,88.764034 c -5.19754,1.862386 -10.40042,3.726554 -15.608628,5.592502 -1.297439,-0.436535 -2.600175,-0.871336 -3.908215,-1.304412 -3.90291,-1.306137 -7.811122,-2.610541 -11.72464,-3.913223 -2.039073,-2.194946 -4.08348,-4.388113 -6.133219,-6.579502" />
    <path
       style="fill:#000000;fill-opacity:1;fill-rule:evenodd;stroke:none;stroke-width:5.99023;stroke-linejoin:round;stroke-dasharray:none;stroke-opacity:1;paint-order:stroke markers fill"
       d="m 133.99311,92.23238 c -8.62951,0.854525 -17.26785,1.709925 -22.54873,1.722584 -5.28088,0.01266 -7.20262,-0.821378 -11.04612,-2.489458 -3.843492,-1.668081 -9.608736,-4.170204 -13.799073,-6.953574 -4.190337,-2.783369 -6.801994,-5.848831 -9.417002,-8.918226"
       id="path31821"
       inkscape:path-effect="#path-effect31825"
       inkscape:original-d="m 133.99311,92.23238 c -8.6295,0.854672 -17.26784,1.710075 -25.91498,2.566194 -1.913,-0.834708 -3.83474,-1.668746 -5.76524,-2.502118 -5.756489,-2.502793 -11.521734,-5.004914 -17.295737,-7.506369 -2.602836,-3.066182 -5.214492,-6.131645 -7.834968,-9.196381" />
  </g>
</svg>
